<?xml version="1.0" standalone="no"?>
<!DOCTYPE svg PUBLIC "-//W3C//DTD SVG 20010904//EN"
 "http://www.w3.org/TR/2001/REC-SVG-20010904/DTD/svg10.dtd">
<svg version="1.0" xmlns="http://www.w3.org/2000/svg"
 width="260.000000pt" height="260.000000pt" viewBox="0 0 260.000000 260.000000"
 preserveAspectRatio="xMidYMid meet">
<metadata>
Created by potrace 1.11, written by Peter Selinger 2001-2013
</metadata>
<g transform="translate(0.000000,260.000000) scale(0.100000,-0.100000)"
fill="#000000" stroke="none">
<path d="M1915 2249 c-27 -5 -88 -29 -135 -52 -66 -32 -103 -59 -166 -122
-132 -131 -185 -248 -183 -407 0 -51 6 -109 14 -128 l13 -35 -529 -530 -529
-530 75 -75 75 -75 198 195 c108 107 277 274 375 370 l177 175 368 -368 c202
-202 372 -367 377 -367 13 0 145 132 145 145 0 6 -165 175 -367 377 l-368 368
81 81 c78 77 82 81 105 68 16 -10 59 -14 134 -14 88 1 122 5 169 23 89 33 161
80 235 153 122 121 183 256 184 404 0 155 -56 256 -177 315 -51 26 -79 32
-142 35 -44 2 -101 0 -129 -6z"/>
<path d="M395 2188 c-15 -18 -42 -62 -59 -98 -29 -60 -31 -73 -31 -175 0 -108
1 -113 37 -185 33 -68 62 -100 288 -325 l250 -250 152 153 153 152 -381 381
-381 381 -28 -34z"/>
</g>
</svg>
